<?xml version="1.0" encoding="UTF-8"?><svg id="Layer_2" xmlns="http://www.w3.org/2000/svg" width="286.42" height="184.15" xmlns:xlink="http://www.w3.org/1999/xlink" viewBox="0 0 286.42 184.15"><defs><style>.cls-1,.cls-2{fill:none;}.cls-2{fill-rule:evenodd;stroke:#379cb0;stroke-miterlimit:10;}.cls-3{clip-path:url(#clippath);}.cls-4{fill:#ff66b3;}.cls-5{fill:#379cb0;}</style><clipPath id="clippath"><rect class="cls-1" x="2.91" y="92.95" width="211.49" height="76.07"/></clipPath></defs><g id="Layer_1-2"><g><path class="cls-5" d="m114.96,2.18c.18-1.32,1.9-2.29,3.84-2.17,1.94.12,3.36,1.3,3.18,2.62l-12.68,90.14c-.18,1.32-1.91,2.29-3.85,2.17-1.94-.13-3.36-1.3-3.18-2.62L114.96,2.18"/><path class="cls-4" d="m117.63,12.03c-9.82-1.83-18.81-1.74-26.92-1.65-10.95.12-20.17.21-26.8-4.87l-4.85-3.72-.79,6.08-5.27,40.45-.28,2.11,1.75,1.23c10.08,7.07,19.93,6.14,30.24,5.16,8.24-.78,16.81-1.6,25.54,2.36l4.33,1.97.62-4.73,5.27-40.45.43-3.32-3.29-.61"/><g><path class="cls-5" d="m19.64,163.75v20.39H0v-71.35h13.83l3.16,4.91c3.56-3.56,8.47-6.01,14.93-6.01,14.88,0,25.9,11.87,25.9,27.91s-11.02,27.81-25.9,27.81c-5.01,0-9.07-1.4-12.28-3.66Zm8.92-14.38c5.66,0,9.77-4.01,9.77-9.67s-4.11-9.72-9.87-9.72-9.77,4.01-9.77,9.72,4.11,9.67,9.87,9.67Z"/><path class="cls-5" d="m65.34,91.1h19.49v75.26h-19.49v-75.26Z"/><path class="cls-5" d="m92.35,139.6c0-16.03,10.97-27.91,25.9-27.91,6.36,0,11.27,2.41,14.88,5.91l3.26-4.81h13.78v53.56h-14.53l-2.46-4.66c-3.66,3.56-8.52,5.96-14.93,5.96-14.93,0-25.9-11.87-25.9-28.06Zm29.26,9.77c5.76,0,9.87-4.01,9.87-9.62s-4.06-9.77-9.77-9.77-9.87,4.01-9.87,9.77,4.11,9.62,9.77,9.62Z"/><path class="cls-5" d="m160.8,112.8h14.63l2.96,5.86c4.36-4.31,11.82-6.96,17.14-6.96,12.58,0,21.24,8.92,21.24,23.6v31.06h-19.59v-27.56c0-5.91-3.11-9.27-7.62-9.27-5.31,0-9.12,4.21-9.12,8.17v28.66h-19.64v-53.56Z"/><path class="cls-4" d="m235.91,85.64c7.01,0,11.62,5.56,11.62,11.07s-4.61,11.02-11.67,11.02-11.57-5.56-11.57-11.02,4.56-11.07,11.62-11.07Zm-9.82,27.16h19.59v53.56h-19.59v-53.56Z"/><path class="cls-4" d="m257.31,130.73h-5.76v-17.94h5.71v-12.33l19.69-4.86v17.19h9.47v17.94h-9.47v35.62h-19.64v-35.62Z"/></g></g><g class="cls-3"><path class="cls-2" d="m-7.76,187.15l-.9-8.99c-.19-1.92-.29-3.82-.29-5.65,0-22.1,12.59-42.56,35.46-57.6,21.53-14.16,49.96-21.96,80.06-21.96s58.53,7.8,80.06,21.96c22.87,15.04,35.46,35.5,35.46,57.6,0,1.82-.1,3.72-.29,5.65l-.9,8.99"/></g></g></svg>