<?xml version="1.0" encoding="UTF-8"?><svg id="Layer_2" xmlns="http://www.w3.org/2000/svg" width="286.42" height="184.15" xmlns:xlink="http://www.w3.org/1999/xlink" viewBox="0 0 286.42 184.15"><defs><style>.cls-1{fill:none;}.cls-2{clip-path:url(#clippath);}.cls-3,.cls-4{fill:#f4e5c4;}.cls-5{fill:#ff66b3;}.cls-6{fill:#379cb0;}.cls-4{fill-rule:evenodd;stroke:#379cb0;stroke-miterlimit:10;}</style><clipPath id="clippath"><rect class="cls-1" x="0" y="90.62" width="216.41" height="76.07"/></clipPath></defs><g id="Layer_1-2"><g><path class="cls-6" d="m114.96,3.2c.18-1.94,1.9-3.36,3.84-3.18,1.94.18,3.36,1.9,3.18,3.84l-12.68,132.18c-.18,1.94-1.91,3.36-3.85,3.18-1.94-.18-3.36-1.9-3.18-3.84L114.96,3.2"/><path class="cls-5" d="m117.95,11c-9.88-1.5-18.86-1.1-26.96-.74-10.94.49-20.15.9-26.95-3.96l-4.97-3.55-.59,6.1-3.9,40.61-.2,2.12,1.79,1.17c10.31,6.73,20.13,5.46,30.4,4.13,8.21-1.06,16.75-2.17,25.6,1.49l4.4,1.82.45-4.75,3.9-40.61.32-3.33-3.31-.5"/><g class="cls-2"><path class="cls-4" d="m108.21,90.7C48.44,90.7,0,121.84,0,160.25c0,1.56.09,3.1.24,4.64h215.93c.16-1.53.25-3.08.25-4.64,0-38.42-48.45-69.56-108.21-69.56Z"/></g><rect class="cls-3" x="4.38" y="162.25" width="212.03" height="3.41"/><g><path class="cls-6" d="m19.64,163.75v20.39H0v-71.35h13.83l3.16,4.91c3.56-3.56,8.47-6.01,14.93-6.01,14.88,0,25.9,11.87,25.9,27.91s-11.02,27.81-25.9,27.81c-5.01,0-9.07-1.4-12.28-3.66Zm8.92-14.38c5.66,0,9.77-4.01,9.77-9.67s-4.11-9.72-9.87-9.72-9.77,4.01-9.77,9.72,4.11,9.67,9.87,9.67Z"/><path class="cls-6" d="m65.34,91.1h19.49v75.26h-19.49v-75.26Z"/><path class="cls-6" d="m92.35,139.6c0-16.03,10.97-27.91,25.9-27.91,6.36,0,11.27,2.41,14.88,5.91l3.26-4.81h13.78v53.56h-14.53l-2.46-4.66c-3.66,3.56-8.52,5.96-14.93,5.96-14.93,0-25.9-11.87-25.9-28.06Zm29.26,9.77c5.76,0,9.87-4.01,9.87-9.62s-4.06-9.77-9.77-9.77-9.87,4.01-9.87,9.77,4.11,9.62,9.77,9.62Z"/><path class="cls-6" d="m160.8,112.8h14.63l2.96,5.86c4.36-4.31,11.82-6.96,17.14-6.96,12.58,0,21.24,8.92,21.24,23.6v31.06h-19.59v-27.56c0-5.91-3.11-9.27-7.62-9.27-5.31,0-9.12,4.21-9.12,8.17v28.66h-19.64v-53.56Z"/><path class="cls-6" d="m235.91,85.64c7.01,0,11.62,5.56,11.62,11.07s-4.61,11.02-11.67,11.02-11.57-5.56-11.57-11.02,4.56-11.07,11.62-11.07Zm-9.82,27.16h19.59v53.56h-19.59v-53.56Z"/><path class="cls-6" d="m257.31,130.73h-5.76v-17.94h5.71v-12.33l19.69-4.86v17.19h9.47v17.94h-9.47v35.62h-19.64v-35.62Z"/></g></g></g></svg>